<?xml version="1.0" encoding="UTF-8"?>
<svg width="49px" height="58px" viewBox="0 0 49 58" version="1.1" xmlns="http://www.w3.org/2000/svg" xmlns:xlink="http://www.w3.org/1999/xlink">
    <!-- Generator: sketchtool 63.1 (101010) - https://sketch.com -->
    <title>C0CD7D44-8F9E-4D3E-9640-5D2021188326</title>
    <desc>Created with sketchtool.</desc>
    <g id="Stylesheet" stroke="none" stroke-width="1" fill="none" fill-rule="evenodd">
        <g id="Style-Sheet" transform="translate(-580.000000, -231.000000)" fill="#FFFFFF" fill-rule="nonzero">
            <g id="Logos" transform="translate(160.000000, 50.000000)">
                <g transform="translate(60.000000, 60.000000)" id="Examples">
                    <g transform="translate(0.000000, 78.000000)">
                        <g id="Logo" transform="translate(360.000000, 43.000000)">
                            <path d="M8.39366073,4.88886715 L8.39366073,52.3576599 L6.71492859,52.3576599 L6.71492859,4.88886715 L8.39366073,4.88886715 Z M5.03619644,9.78712581 L5.03619644,47.4588143 L3.35746429,47.4588143 L3.35746429,9.78771278 L5.03619644,9.78712581 Z M1.67873215,14.6812757 L1.67873215,42.5664254 L-7.10542736e-15,42.5664254 L-7.10542736e-15,14.6812757 L1.67873215,14.6812757 Z M36.8675406,57.247701 L36.8675406,29.502837 L11.7505381,29.502837 L11.7505381,57.247701 L10.0718059,57.247701 L10.0718059,-2.94875235e-13 L11.7505381,-2.94875235e-13 L11.7505381,27.822344 L36.8675406,27.822344 L36.8675406,-2.94875235e-13 L38.5462727,-2.94875235e-13 L38.5462727,57.247701 L36.8675406,57.247701 Z M40.2250049,52.4116611 L40.2250049,4.89414987 L41.903737,4.89414987 L41.903737,52.4116611 L40.2250049,52.4116611 Z M43.5824692,47.4594013 L43.5824692,9.78771278 L45.2612013,9.78771278 L45.2612013,47.4594013 L43.5824692,47.4594013 Z M46.9399335,42.5658384 L46.9399335,14.6812757 L48.6186656,14.6812757 L48.6186656,42.5658384 L46.9399335,42.5658384 Z M13.4292702,26.140677 L13.4292702,4.89238896 L15.1080023,4.89238896 L15.1080023,24.4725103 L33.5235766,24.4725103 L33.5106633,4.8935629 L35.1893954,4.8935629 L35.1893954,26.1418509 L13.4292702,26.140677 Z M16.7873215,22.7843866 L16.7873215,9.78771278 L18.4660536,9.78771278 L18.4660536,21.1162199 L30.1496772,21.1162199 L30.1496772,9.78771278 L31.8284093,9.78771278 L31.8284093,22.7843866 L16.7873215,22.7843866 Z M20.1436118,19.4286832 L20.1436118,14.6812757 L21.822344,14.6812757 L21.822344,17.7581687 L26.7963217,17.7581687 L26.7963217,14.6812757 L28.4750538,14.6812757 L28.4750538,19.4286832 L20.1436118,19.4286832 Z M35.1893954,31.1762864 L35.1893954,52.4192917 L33.5106633,52.4192917 L33.5106633,32.8444531 L15.0945021,32.8444531 L15.1074154,52.4198787 L13.4286832,52.4198787 L13.4286832,31.1762864 L35.1893954,31.1762864 Z M31.8278223,34.5537077 L31.8278223,47.4594013 L30.1490902,47.4594013 L30.1490902,36.210722 L18.4648797,36.210722 L18.4648797,47.4594013 L16.7873215,47.4594013 L16.7873215,34.5337507 L31.8278223,34.5537077 Z M28.4756408,37.891215 L28.4756408,42.5658384 L26.7969086,42.5658384 L26.7969086,39.5587948 L21.822344,39.5587948 L21.822344,42.5658384 L20.1436118,42.5658384 L20.1436118,37.891215 L28.4756408,37.891215 Z"></path>
                        </g>
                    </g>
                </g>
            </g>
        </g>
    </g>
</svg>