<?xml version="1.0" encoding="UTF-8"?>
<svg width="300px" height="58px" viewBox="0 0 300 58" version="1.1" xmlns="http://www.w3.org/2000/svg" xmlns:xlink="http://www.w3.org/1999/xlink">
    <!-- Generator: sketchtool 63.1 (101010) - https://sketch.com -->
    <title>47F56941-BBA0-4AF6-BAE9-A412D24022E7</title>
    <desc>Created with sketchtool.</desc>
    <defs>
        <path d="M11.7505381,-3.12638804e-13 L11.7505381,27.822344 L36.8675406,27.822344 L36.8675406,-3.12638804e-13 L38.5462727,-3.12638804e-13 L38.5462727,57.247701 L36.8675406,57.247701 L36.8675406,29.502837 L11.7505381,29.502837 L11.7505381,57.247701 L10.0718059,57.247701 L10.0718059,-3.12638804e-13 L11.7505381,-3.12638804e-13 Z M35.1893954,31.1762864 L35.1893954,52.4192917 L33.5106633,52.4192917 L33.5106633,32.8444531 L15.0945021,32.8444531 L15.1074154,52.4198787 L13.4286832,52.4198787 L13.4286832,31.1762864 L35.1893954,31.1762864 Z M41.903737,4.89414987 L41.903737,52.4116611 L40.2250049,52.4116611 L40.2250049,4.89414987 L41.903737,4.89414987 Z M8.39366073,4.88886715 L8.39366073,52.3576599 L6.71492859,52.3576599 L6.71492859,4.88886715 L8.39366073,4.88886715 Z M45.2612013,9.78771278 L45.2612013,47.4594013 L43.5824692,47.4594013 L43.5824692,9.78771278 L45.2612013,9.78771278 Z M16.7873215,34.5337507 L31.8278223,34.5537077 L31.8278223,47.4594013 L30.1490902,47.4594013 L30.1490902,36.210722 L18.4648797,36.210722 L18.4648797,47.4594013 L16.7873215,47.4594013 L16.7873215,34.5337507 Z M5.03619644,9.78712581 L5.03619644,47.4588143 L3.35746429,47.4588143 L3.35746429,9.78771278 L5.03619644,9.78712581 Z M267.51125,11.7147329 C267.348855,14.6652319 267.21894,17.3396596 267.121503,19.738016 C267.024066,22.1038936 266.94326,24.3404422 266.879084,26.4476619 C266.814909,28.5548816 266.766191,30.6454706 266.732929,32.7194287 L266.732929,32.7194287 L266.732929,45.1197417 C266.069754,45.0537946 265.403679,45.0212745 264.737233,45.0223048 C264.103711,45.0179033 263.470471,45.0504374 262.840736,45.1197417 C256.162982,37.3412248 249.080219,29.5135981 241.592448,21.6368617 C241.559969,22.5760125 241.52749,23.5151634 241.495011,24.4543142 L241.495011,24.4543142 L241.495011,37.9223244 C241.52749,39.2829192 241.559969,40.433379 241.592448,41.3737038 C241.624927,42.3140286 241.657406,43.0921542 241.689885,43.7080806 C241.722364,44.2911368 241.754647,44.7607122 241.786734,45.1168069 C241.40116,45.0518993 241.010839,45.0193071 240.61984,45.01937 L240.61984,45.01937 L239.504598,45.01937 C238.758756,45.0189787 238.013109,45.0514576 237.267658,45.1168069 C237.331051,44.8577578 237.412052,43.9342594 237.510663,42.3463119 C237.609274,40.7583643 237.707102,38.8295833 237.804148,36.5599687 C237.935238,34.2586578 238.033066,31.7789082 238.097633,29.12072 C238.195069,26.4304441 238.243788,23.853649 238.243788,21.3903346 C238.244571,19.1539816 238.212287,17.2741147 238.146938,15.7507337 C238.081589,14.2273528 238.032675,12.8820192 238.000196,11.7147329 C238.908041,11.8771278 239.637449,11.9583252 240.188417,11.9583252 C240.739386,11.9583252 241.468793,11.8771278 242.376639,11.7147329 C245.909802,15.6368617 249.394248,19.4942281 252.829975,23.2868323 C256.297789,27.0794365 259.847388,30.9366073 263.478771,34.8583447 L263.478771,34.8583447 L263.478771,25.9129329 C263.478771,24.324594 263.462727,22.7685384 263.43064,21.2447662 C263.43064,19.6892976 263.4144,18.2631579 263.381921,16.9663471 C263.38153,15.6687537 263.349051,14.5503815 263.284484,13.6112307 C263.252005,12.6712972 263.203287,12.0391313 263.138329,11.7147329 C264.04461,11.8771278 264.773039,11.9583252 265.323616,11.9583252 C265.874193,11.9583252 266.603404,11.8771278 267.51125,11.7147329 Z M220.493837,11.4729016 C221.530816,14.2273528 222.632753,17.1768734 223.799648,20.3214635 C224.999413,23.4656623 226.198787,26.5613383 227.39777,29.6084915 C228.596752,32.6216005 229.763451,35.4899237 230.897867,38.2134612 C232.032283,40.9369986 233.071023,43.2381139 234.014087,45.1168069 C233.235766,45.0514576 232.490119,45.0189787 231.777147,45.01937 L227.644297,45.01937 C226.964195,45.01937 226.283702,45.051849 225.602817,45.1168069 C225.083937,43.5292506 224.549012,41.9088241 223.998043,40.2555273 C223.447075,38.6022305 222.863823,36.9489337 222.248288,35.2956369 C221.211309,35.2639405 220.17433,35.2478967 219.137351,35.2475054 C218.100372,35.2150264 217.063393,35.1987869 216.026414,35.1987869 C215.183526,35.1987869 214.340833,35.2150264 213.498337,35.2475054 C212.655449,35.2475054 211.812561,35.2635492 210.969673,35.2956369 C210.32205,36.949325 209.722559,38.6026218 209.171199,40.2555273 C208.61984,41.9084328 208.117394,43.5288593 207.663862,45.1168069 C207.277863,45.052271 206.88715,45.0200715 206.495793,45.0205439 L204.206613,45.0205439 C203.783389,45.0229402 203.360875,45.0555016 202.942281,45.1179808 C203.330855,44.2762669 203.849345,43.1095676 204.49775,41.617883 C205.146155,40.1261984 205.859323,38.4406183 206.637253,36.5611426 C207.414792,34.6828409 208.241244,32.6732538 209.116611,30.5323811 C210.024066,28.3602035 210.915476,26.1721777 211.790843,23.9683037 C212.698298,21.7640383 213.573469,19.592252 214.416357,17.4529446 C215.290941,15.3132459 216.085111,13.3198983 216.798865,11.4729016 C217.123264,11.5370769 217.431031,11.6018392 217.722168,11.6671884 C218.336241,11.731075 218.955287,11.731075 219.56936,11.6671884 C219.862845,11.6020348 220.16983,11.5368812 220.493837,11.4729016 Z M174.407357,11.7106241 C173.856388,12.2627666 173.0135,13.1543729 171.878693,14.3854432 C170.743886,15.6165134 169.528077,16.9454119 168.231266,18.3721385 C166.967325,19.7980826 165.751908,21.1917433 164.585013,22.5531207 C163.418509,23.8816279 162.510859,24.9350421 161.862062,25.7133633 C162.899433,27.3020935 164.050088,29.0524359 165.314029,30.9643905 C166.577969,32.8763451 167.826061,34.7562121 169.058306,36.6039914 C170.321855,38.4189004 171.488554,40.1044805 172.558403,41.6607318 C173.628253,43.1841127 174.48738,44.3345725 175.135786,45.1121111 C174.195852,45.0471532 173.35316,45.0146742 172.607709,45.0146742 L172.607709,45.0146742 L168.279984,45.0146742 C167.599491,45.0142829 166.902759,45.0467619 166.189787,45.1121111 C164.53649,42.649188 162.915672,40.1533946 161.327333,37.624731 C159.739386,35.0659362 158.118959,32.5224027 156.466054,29.9941303 L156.466054,29.9941303 L156.368617,29.9941303 C156.370573,33.5288593 156.387204,36.5605557 156.418509,39.0892193 C156.449814,41.617883 156.563295,43.6274702 156.758951,45.1179808 C156.161691,45.0502863 155.560968,45.0177513 154.95989,45.0205439 L154.95989,45.0205439 L150.5811,45.0205439 C149.980436,45.0174089 149.380107,45.0495518 148.783213,45.1168069 C148.914302,43.1070241 149.012131,41.0651536 149.076697,38.9911955 C149.141655,36.8839757 149.174134,34.4854236 149.174134,31.795539 L149.174134,31.795539 L149.174134,25.1827431 C149.174526,22.4916846 149.142047,20.1091763 149.076697,18.0352182 C149.010957,15.9283897 148.913129,13.8213657 148.783213,11.714146 C149.334572,11.7791039 149.934259,11.8438662 150.582274,11.9084328 C151.230679,11.9413031 151.960086,11.9577382 152.770495,11.9577382 C153.580904,11.9577382 154.310311,11.9413031 154.958716,11.9084328 C155.606731,11.8446488 156.206418,11.7798865 156.757777,11.714146 C156.595774,12.6865584 156.482293,14.1453727 156.417335,16.0905889 C156.385248,18.0350225 156.369204,20.1905694 156.369204,22.5572295 L156.369204,27.2183526 C157.471141,25.9219331 158.654275,24.5120329 159.918607,22.9886519 C161.181374,21.4343573 162.396791,19.9278028 163.56486,18.4689885 C164.732929,17.0101741 165.786539,15.6812757 166.72569,14.4822931 C167.665232,13.2504402 168.345725,12.3265506 168.767169,11.7106241 C169.221483,11.7755821 169.67521,11.8403444 170.128351,11.904911 C170.581882,11.9377813 171.035609,11.9542164 171.489532,11.9542164 C171.943455,11.9542164 172.397183,11.9377813 172.850714,11.904911 C173.337116,11.841127 173.855997,11.7763647 174.407357,11.7106241 Z M299.216983,11.7106241 C298.666014,12.2627666 297.823127,13.1543729 296.688319,14.3854432 C295.553512,15.6165134 294.337899,16.9454119 293.041479,18.3721385 C291.777147,19.7980826 290.561534,21.1917433 289.394639,22.5531207 C288.227744,23.8816279 287.320094,24.9350421 286.671689,25.7133633 C287.709059,27.3020935 288.859714,29.0524359 290.123655,30.9643905 C291.387595,32.8763451 292.635688,34.7562121 293.867932,36.6039914 C295.131481,38.4189004 296.29818,40.1044805 297.36803,41.6607318 C298.437488,43.1841127 299.296615,44.3345725 299.945412,45.1121111 C299.005478,45.0471532 298.162786,45.0146742 297.417335,45.0146742 L297.417335,45.0146742 L293.090198,45.0146742 C292.409705,45.0142829 291.712776,45.0467619 290.999413,45.1121111 C289.346116,42.649188 287.725494,40.1533946 286.137546,37.624731 C284.549208,35.0659362 282.928585,32.5224027 281.27568,29.9941303 L281.27568,29.9941303 L281.175895,29.9941303 C281.178634,33.5280767 281.195656,36.5593817 281.226961,39.0880454 C281.258266,41.6167091 281.371747,43.6262962 281.567404,45.1168069 C280.970143,45.049111 280.369421,45.016576 279.768343,45.01937 L279.768343,45.01937 L275.392487,45.01937 C274.791409,45.0165841 274.190687,45.0491191 273.593426,45.1168069 C273.724516,43.1070241 273.822344,41.0651536 273.886911,38.9911955 C273.951869,36.8839757 273.984347,34.4854236 273.984347,31.795539 L273.984347,31.795539 L273.984347,25.1827431 C273.984739,22.4916846 273.95226,20.1091763 273.886911,18.0352182 C273.82117,15.9283897 273.723342,13.8213657 273.593426,11.714146 C274.144394,11.7791039 274.744081,11.8438662 275.392487,11.9084328 C276.040501,11.9413031 276.769712,11.9577382 277.580121,11.9577382 C278.39053,11.9577382 279.119937,11.9413031 279.768343,11.9084328 C280.416357,11.8446488 281.016044,11.7798865 281.567404,11.714146 C281.4054,12.6865584 281.291919,14.1453727 281.226961,16.0905889 C281.194874,18.0350225 281.17883,20.1905694 281.17883,22.5572295 L281.17883,22.5572295 L281.17883,27.2183526 C282.280767,25.9219331 283.463901,24.5120329 284.728233,22.9886519 C285.991,21.4343573 287.206418,19.9278028 288.374486,18.4689885 C289.542555,17.0101741 290.596165,15.6812757 291.535316,14.4822931 C292.474858,13.2504402 293.155351,12.3265506 293.576795,11.7106241 C294.031109,11.7755821 294.484837,11.8403444 294.937977,11.904911 C295.391117,11.9377813 295.844844,11.9542164 296.299159,11.9542164 C296.753473,11.9542164 297.2072,11.9377813 297.66034,11.904911 C298.146742,11.841127 298.665623,11.7763647 299.216983,11.7106241 Z M134.098415,11.7123851 C133.967325,13.8196048 133.869497,15.9266288 133.804931,18.0334572 C133.740364,20.1074154 133.708081,22.4899237 133.708081,25.1809822 L133.708081,37.1445901 C133.740168,38.8620622 133.772452,40.3529642 133.804931,41.617296 C135.651145,41.6161221 137.498728,41.567208 139.347681,41.4705537 C141.196635,41.3738994 143.060262,41.2118959 144.938564,40.9845431 C144.873215,41.3414205 144.824692,41.6658188 144.792995,41.9577382 C144.727615,42.7666325 144.727615,43.5794837 144.792995,44.388378 C144.816165,44.635573 144.86495,44.8796926 144.938564,45.1168069 C144.063588,45.0835453 142.977695,45.0510663 141.680884,45.01937 L141.680884,45.01937 L127.045979,45.01937 C126.690276,45.0516533 126.38153,45.0839366 126.122677,45.1168069 C126.253766,43.1070241 126.351595,41.0651536 126.416161,38.9911955 C126.481119,36.8839757 126.513598,34.4854236 126.513598,31.795539 L126.513598,31.795539 L126.513598,25.1809822 C126.513989,22.4918803 126.482293,20.1093719 126.418509,18.0334572 C126.352769,15.9266288 126.25494,13.8196048 126.125024,11.7123851 C126.675993,11.777343 127.27568,11.8421053 127.924085,11.9066719 C128.572491,11.9395422 129.301702,11.9559773 130.11172,11.9559773 C130.921737,11.9559773 131.650949,11.9395422 132.299354,11.9066719 C132.94776,11.8428879 133.547447,11.7781256 134.098415,11.7123851 Z M109.207396,11.4711407 C110.244766,14.2255919 111.346703,17.1751125 112.513207,20.3197026 C113.712972,23.4639014 114.912346,26.5595774 116.111329,29.6067306 C117.310311,32.6198396 118.47701,35.4881628 119.611426,38.2117003 C120.745842,40.9352377 121.782626,43.2369399 122.721777,45.1168069 C121.943455,45.0514576 121.197809,45.0189787 120.484837,45.01937 L116.351986,45.01937 C115.671493,45.01937 114.991,45.051849 114.310507,45.1168069 C113.792017,43.5292506 113.257093,41.9088241 112.705733,40.2555273 C112.154373,38.6022305 111.570925,36.9489337 110.95539,35.2956369 C109.918411,35.2639405 108.881432,35.2478967 107.844453,35.2475054 C106.807474,35.2150264 105.770495,35.1987869 104.733516,35.1987869 C103.891019,35.1987869 103.048131,35.2150264 102.204852,35.2475054 C101.362356,35.2475054 100.519663,35.2635492 99.6767756,35.2956369 C99.0291528,36.949325 98.4296615,38.6026218 97.8783017,40.2555273 C97.3269419,41.9084328 96.8244962,43.5288593 96.3709646,45.1168069 C95.9853846,45.0519454 95.595067,45.0193535 95.2040697,45.01937 L92.9172373,45.01937 C92.4940133,45.0217602 92.0714982,45.0543218 91.6529055,45.1168069 C92.0418705,44.2750929 92.5611426,43.108198 93.210722,41.6161221 C93.8603013,40.1240462 94.573469,38.4384661 95.350225,36.5593817 C96.1277636,34.68108 96.9542164,32.6714929 97.8295833,30.5306202 C98.7370378,28.3584426 99.6284484,26.1704167 100.503815,23.9665428 C101.41127,21.7622774 102.286441,19.5904911 103.129329,17.4511837 C104.004304,15.311485 104.798474,13.3181374 105.511837,11.4711407 C105.836236,11.535316 106.144199,11.6000783 106.435727,11.6654275 C107.0498,11.7293184 107.668846,11.7293184 108.282919,11.6654275 C108.57523,11.6000783 108.883389,11.535316 109.207396,11.4711407 Z M88.2473097,11.7123851 C88.1162199,13.8196048 88.0183917,15.9266288 87.9538251,18.0334572 C87.8888671,20.1074154 87.8563882,22.4899237 87.8563882,25.1809822 L87.8563882,25.1809822 L87.8563882,31.795539 C87.8559969,34.4858149 87.8884758,36.8843671 87.9538251,38.9911955 C88.0195656,41.0659362 88.1173939,43.1078067 88.2473097,45.1168069 C87.6500494,45.0491124 87.0493268,45.0165773 86.4482489,45.01937 L86.4482489,45.01937 L82.0723929,45.01937 C81.4713148,45.0165719 80.8705919,45.049107 80.273332,45.1168069 C80.4044218,43.1070241 80.50225,41.0651536 80.5668167,38.9911955 C80.6313833,36.8839757 80.6636666,34.4854236 80.6636666,31.795539 L80.6636666,31.795539 L80.6636666,29.0238701 L76.9728038,28.9270202 C75.7389943,28.8620622 74.5063588,28.8295833 73.2748973,28.8295833 C72.0414792,28.8295833 70.8088437,28.8458227 69.5769908,28.8783017 C68.3451379,28.9107807 67.1134807,28.9593035 65.8820192,29.0238701 L65.8820192,29.0238701 L65.8827274,32.5220178 C65.8878048,34.9195044 65.9200477,37.0758969 65.9794561,38.9911955 C66.0455879,41.0659362 66.1434162,43.1078067 66.2729407,45.1168069 C65.6756808,45.049107 65.0749579,45.0165719 64.4738799,45.01937 L64.4738799,45.01937 L60.0980239,45.01937 C59.4969457,45.0165692 58.8962227,45.0491043 58.298963,45.1168069 C58.4300528,43.1070241 58.527881,41.0651536 58.5924477,38.9911955 C58.6574056,36.8839757 58.6898846,34.4854236 58.6898846,31.795539 L58.6891763,24.4547072 C58.684099,22.0592904 58.6518561,19.9188737 58.5924477,18.0334572 C58.5267071,15.9266288 58.4288789,13.8196048 58.298963,11.7123851 C58.8499315,11.777343 59.4496185,11.8421053 60.0980239,11.9066719 C60.7464293,11.9395422 61.4756408,11.9559773 62.2856584,11.9559773 C63.095676,11.9559773 63.8248875,11.9395422 64.4732929,11.9066719 C65.121307,11.8428879 65.7209939,11.7781256 66.2723537,11.7123851 C66.1095676,13.8199961 65.9960869,15.9107807 65.9319116,17.9847388 C65.8998239,20.0266093 65.8837801,22.3930738 65.8837801,25.0841323 C66.7262767,25.1166112 67.7311681,25.1490902 68.8984543,25.1815692 L68.8984543,25.1815692 L77.6020348,25.1815692 C78.7043631,25.1486989 79.7251027,25.1162199 80.6642536,25.0841323 C80.6650362,22.3938564 80.6327529,20.0273919 80.5674036,17.9847388 C80.5016631,15.9103894 80.4038349,13.8196048 80.273919,11.7123851 C80.8248875,11.777343 81.4245744,11.8421053 82.0729798,11.9066719 C82.7213852,11.9395422 83.4505968,11.9559773 84.2606144,11.9559773 C85.070632,11.9559773 85.7998435,11.9395422 86.4482489,11.9066719 C87.096263,11.8428879 87.6959499,11.7781256 88.2473097,11.7123851 Z M190.450401,11.7147329 C191.909607,11.7147329 193.238701,11.8606926 194.437683,12.152612 C195.636666,12.4445314 196.673645,12.8984543 197.548621,13.5143807 C198.418573,14.0908678 199.109865,14.8992731 199.544316,15.8481706 C200.033066,16.7896693 200.276267,17.9244766 200.273919,19.2525924 C200.271571,20.5807083 199.994717,21.7299941 199.443357,22.70045 C198.915233,23.6139656 198.222701,24.4219203 197.400704,25.0835453 C196.622027,25.6995689 195.752841,26.1915793 194.823909,26.542164 C193.916063,26.89865 193.089415,27.1418509 192.343964,27.2717668 L192.343964,27.2717668 L192.343964,27.3692037 C193.089806,27.4012913 193.964977,27.5795343 194.969478,27.9039327 C195.998582,28.2075343 196.968577,28.6838976 197.837996,29.312659 C198.745451,29.9614557 199.507141,30.8043436 200.123068,31.8413226 C200.771473,32.8481706 201.095676,34.0808061 201.095676,35.5392291 C201.095676,37.2895715 200.771473,38.7800822 200.123068,40.0107611 C199.538029,41.2064205 198.670276,42.2413982 197.594991,43.0260223 C196.557621,43.8043436 195.358247,44.3553121 193.996869,44.6789278 C192.60638,44.9737263 191.188559,45.1203091 189.767169,45.1162199 C188.471141,45.1168069 187.255723,45.1003717 186.120916,45.0675015 C185.018196,45.0354138 183.851105,45.01937 182.619644,45.01937 L182.619644,45.01937 L179.896693,45.01937 C178.98963,45.0189787 178.260419,45.0514576 177.709059,45.1168069 C177.840149,43.1070241 177.937977,41.0651536 178.002544,38.9911955 C178.067501,36.8839757 178.09998,34.4854236 178.09998,31.795539 L178.099398,24.4552117 C178.094806,22.0613795 178.063695,19.9215773 178.006065,18.0358051 C177.940325,15.9289767 177.842497,13.8219527 177.712581,11.7147329 C178.263158,11.7796909 178.862845,11.8444531 179.511642,11.9090198 C180.160047,11.94189 180.889258,11.9583252 181.699276,11.9583252 C183.093132,11.9579339 184.551555,11.9254549 186.074545,11.8608883 C187.598709,11.7634514 189.057327,11.7147329 190.450401,11.7147329 Z M1.67873215,14.6812757 L1.67873215,42.5664254 L4.97379915e-14,42.5664254 L4.97379915e-14,14.6812757 L1.67873215,14.6812757 Z M48.6186656,14.6812757 L48.6186656,42.5658384 L46.9399335,42.5658384 L46.9399335,14.6812757 L48.6186656,14.6812757 Z M28.4756408,37.891215 L28.4756408,42.5658384 L26.7969086,42.5658384 L26.7969086,39.5587948 L21.822344,39.5587948 L21.822344,42.5658384 L20.1436118,42.5658384 L20.1436118,37.891215 L28.4756408,37.891215 Z M187.436314,29.121307 C186.982782,29.121307 186.593817,29.1375465 186.269419,29.1700254 L186.269419,29.1700254 L185.346116,29.1700254 C185.345725,29.8505185 185.329681,30.5634905 185.297985,31.3089415 L185.297985,31.3089415 L185.297985,36.268245 C185.330072,37.0790452 185.346116,37.8732146 185.346116,38.6507533 L185.346116,38.6507533 L185.346116,40.7873215 C185.378595,41.4357269 185.394835,41.9706515 185.394835,42.3920955 C185.84641,42.4241831 186.267854,42.4566621 186.659167,42.4895348 L186.659167,42.4895348 L188.067893,42.4895348 C189.503225,42.4909553 190.868672,41.8700059 191.810996,40.7873215 C192.319629,40.1643825 192.714803,39.4568846 192.978478,38.6971239 C193.270006,37.8886715 193.41577,36.9495206 193.41577,35.8796713 C193.41577,33.6100567 192.897476,31.9246723 191.860888,30.8235179 C190.856388,29.6887106 189.38153,29.121307 187.436314,29.121307 Z M105.510076,20.8556056 C104.667188,22.8000391 103.873997,24.7286245 103.130503,26.6413618 C102.385052,28.5196635 101.655449,30.4484445 100.941694,32.427705 L109.838975,32.427705 C109.126003,30.4504011 108.413031,28.52162 107.700059,26.6413618 C107.017609,24.7286245 106.287615,22.8000391 105.510076,20.8556056 Z M216.802387,20.8556056 C215.957543,22.8000391 215.163373,24.7286245 214.419879,26.6413618 C213.674428,28.5196635 212.945021,30.4484445 212.231657,32.427705 L221.128938,32.427705 C220.415966,30.4504011 219.702994,28.52162 218.990022,26.6413618 C218.309137,24.7286245 217.579926,22.8000391 216.802387,20.8556056 Z M187.870671,14.4864019 C187.157699,14.4864019 186.655058,14.5024457 186.362747,14.5345334 C186.068747,14.5385388 185.775836,14.5711718 185.488163,14.6319703 C185.422814,15.8325181 185.374095,17.0483271 185.342007,18.2793974 C185.30992,19.5104676 185.293876,20.5474467 185.293876,21.3903346 L185.293876,21.3903346 L185.293876,23.9166504 C185.325964,24.6945803 185.342007,25.5049892 185.342007,26.3478771 L185.342007,26.3478771 L187.529642,26.3478771 C188.213759,26.3476236 188.891392,26.2152858 189.525338,25.9581295 C190.192545,25.7083412 190.803909,25.3293558 191.324398,24.8428879 C191.843279,24.3243984 192.264723,23.6761886 192.58873,22.8982587 C192.912737,22.1203287 193.074741,21.2126785 193.074741,20.1753082 C193.079368,19.4355554 192.980383,18.6987989 192.780669,17.9864997 C192.618666,17.2735277 192.326942,16.6740364 191.905498,16.1880258 C191.474506,15.6618246 190.92496,15.2452397 190.301898,14.9724124 C189.653492,14.6484054 188.843084,14.4864019 187.870671,14.4864019 Z M15.1080023,4.89238896 L15.1080023,24.4725103 L33.5235766,24.4725103 L33.5106633,4.8935629 L35.1893954,4.8935629 L35.1893954,26.1418509 L13.4292702,26.140677 L13.4292702,4.89238896 L15.1080023,4.89238896 Z M18.4660536,9.78771278 L18.4660536,21.1162199 L30.1496772,21.1162199 L30.1496772,9.78771278 L31.8284093,9.78771278 L31.8284093,22.7843866 L16.7873215,22.7843866 L16.7873215,9.78771278 L18.4660536,9.78771278 Z M21.822344,14.6812757 L21.822344,17.7581687 L26.7963217,17.7581687 L26.7963217,14.6812757 L28.4750538,14.6812757 L28.4750538,19.4286832 L20.1436118,19.4286832 L20.1436118,14.6812757 L21.822344,14.6812757 Z" id="path-1"></path>
    </defs>
    <g id="Stylesheet" stroke="none" stroke-width="1" fill="none" fill-rule="evenodd">
        <g id="Style-Sheet" transform="translate(-220.000000, -231.000000)">
            <g id="Logos" transform="translate(160.000000, 50.000000)">
                <g transform="translate(60.000000, 60.000000)" id="Examples">
                    <g transform="translate(0.000000, 78.000000)">
                        <g id="Logo1" transform="translate(0.000000, 43.000000)">
                            <mask id="mask-2" fill="white">
                                <use xlink:href="#path-1"></use>
                            </mask>
                            <use id="Combined-Shape" fill="#FFFFFF" fill-rule="nonzero" xlink:href="#path-1"></use>
                        </g>
                    </g>
                </g>
            </g>
        </g>
    </g>
</svg>